<?xml version="1.0" standalone="no"?>
<!DOCTYPE svg PUBLIC "-//W3C//DTD SVG 20010904//EN"
 "http://www.w3.org/TR/2001/REC-SVG-20010904/DTD/svg10.dtd">
<svg version="1.0" xmlns="http://www.w3.org/2000/svg"
 width="700.000000pt" height="700.000000pt" viewBox="0 0 700.000000 700.000000"
 preserveAspectRatio="xMidYMid meet">
<metadata>
Created by potrace 1.14, written by Peter Selinger 2001-2017
</metadata>
<g transform="translate(0.000000,700.000000) scale(0.100000,-0.100000)"
fill="#000000" stroke="none">
<path d="M5515 6004 c-24 -9 -66 -41 -107 -84 -96 -96 -115 -150 -83 -226 10
-24 157 -177 435 -453 231 -229 420 -419 420 -422 0 -4 -1360 -7 -3023 -7
-3356 0 -3067 7 -3123 -68 -28 -36 -29 -41 -29 -149 0 -102 2 -114 25 -148 14
-21 43 -44 66 -54 39 -17 192 -18 3062 -18 1662 0 3022 -2 3022 -5 0 -3 -191
-196 -425 -429 -469 -467 -460 -456 -436 -551 9 -35 29 -62 84 -118 93 -95
136 -113 216 -89 37 10 129 98 693 657 373 370 658 661 669 682 23 45 24 86 4
135 -10 24 -225 245 -663 680 -356 354 -658 650 -672 657 -39 22 -91 25 -135
10z"/>
<path d="M1366 3816 c-41 -18 -1323 -1292 -1347 -1338 -10 -21 -19 -50 -19
-65 2 -76 9 -85 679 -751 359 -356 663 -653 676 -660 34 -17 83 -21 122 -9 40
12 154 115 186 167 26 42 31 113 9 155 -8 17 -203 217 -433 445 -231 228 -419
418 -419 422 0 3 1360 7 3023 7 2228 0 3030 3 3052 11 75 28 105 88 105 205 0
50 -6 99 -14 118 -18 43 -63 83 -106 94 -20 5 -1316 9 -3053 8 l-3018 0 430
428 c447 445 458 458 448 530 -7 50 -30 86 -99 154 -89 88 -151 110 -222 79z"/>
</g>
</svg>
